<svg width="3296" height="2448" viewBox="0 0 3296 2448" fill="none" xmlns="http://www.w3.org/2000/svg">
<rect width="3296" height="2448" fill="white"/>
<rect width="495" height="430" transform="translate(2061 1485)" fill="#75AEE2"/>
<path d="M2263.57 1729H2258.9L2275.73 1683.18H2281.42L2298.45 1729H2293.65L2289.17 1716.84H2268.05L2263.57 1729ZM2277.97 1689.64L2269.46 1712.81H2287.7L2279.12 1689.64C2278.93 1689 2278.61 1688.23 2278.54 1687.78C2278.48 1688.17 2278.22 1689 2277.97 1689.64ZM2322.29 1712.17H2309.43V1729H2304.82V1683.18H2322.29C2331.12 1683.18 2336.69 1688.94 2336.69 1697.58C2336.69 1705.9 2331.06 1712.17 2322.29 1712.17ZM2321.65 1687.34H2309.43V1708.01H2321.39C2328.05 1708.01 2331.89 1703.78 2331.89 1697.51C2331.89 1691.18 2327.99 1687.34 2321.65 1687.34ZM2348.74 1683.18V1729H2344.13V1683.18H2348.74Z" fill="black"/>
<rect width="1263" height="430" transform="translate(1734 365)" fill="#BDEBA8"/>
<path d="M1967.88 487.816V484.04C1972.17 484.04 1973.45 482.184 1973.45 479.624V465.16C1973.45 461.576 1975.82 459.144 1979.78 459.144H1983.37V462.728H1980.17C1978.5 462.728 1977.48 463.88 1977.48 465.544V479.88C1977.48 483.016 1976.33 485 1973.32 485.896C1976.33 486.92 1977.48 488.904 1977.48 492.04V506.376C1977.48 508.04 1978.5 509.192 1980.17 509.192H1983.37V512.776H1979.78C1975.82 512.776 1973.45 510.344 1973.45 506.76V492.296C1973.45 489.736 1972.17 487.816 1967.88 487.816ZM1976.78 557.56C1976.78 559.672 1975.3 561.272 1973.06 561.272C1970.82 561.272 1968.9 559.48 1968.9 556.28C1968.9 552.312 1971.91 548.92 1975.82 548.28V550.648C1973.58 551.096 1971.91 552.696 1971.91 554.552C1972.3 554.296 1972.81 554.104 1973.64 554.104C1975.3 554.104 1976.78 555.32 1976.78 557.56ZM1987.14 557.56C1987.14 559.672 1985.61 561.272 1983.37 561.272C1981.19 561.272 1979.21 559.48 1979.21 556.28C1979.21 552.312 1982.22 548.92 1986.18 548.28V550.648C1983.94 551.096 1982.28 552.696 1982.28 554.488C1982.66 554.232 1983.24 554.104 1984.01 554.104C1985.67 554.104 1987.14 555.32 1987.14 557.56ZM2000.09 595H1995.67V564.024H1999.51L2000.15 569.4C2002.2 565.432 2006.29 563.192 2010.77 563.192C2019.29 563.192 2022.81 568.248 2022.81 576.056V595H2018.39V577.016C2018.39 569.784 2015.13 567.224 2010.01 567.224C2003.67 567.224 2000.09 571.832 2000.09 578.808V595ZM2040.5 595.768C2033.91 595.768 2030.01 592.056 2030.01 586.616C2030.01 580.92 2034.36 577.336 2041.59 576.76L2051.83 575.928V574.904C2051.83 568.824 2048.18 566.904 2043.64 566.904C2038.26 566.904 2035.06 569.336 2035.06 573.496H2031.03C2031.03 567.224 2036.15 563.192 2043.77 563.192C2050.94 563.192 2056.18 566.776 2056.18 574.968V595H2052.47L2051.9 589.56C2049.98 593.464 2045.75 595.768 2040.5 595.768ZM2041.53 592.184C2048.06 592.184 2051.83 587.64 2051.83 580.92V579.256L2042.68 579.96C2036.86 580.472 2034.49 583.032 2034.49 586.488C2034.49 590.264 2037.3 592.184 2041.53 592.184ZM2069.46 595H2065.05V564.024H2068.89L2069.4 568.44C2070.93 565.176 2074.39 563.192 2078.74 563.192C2083.61 563.192 2087.25 565.752 2088.73 569.784C2090.13 565.752 2093.91 563.192 2098.9 563.192C2105.62 563.192 2110.04 567.544 2110.04 574.712V595H2105.75V575.608C2105.75 570.296 2102.81 567.16 2098.07 567.16C2092.89 567.16 2089.81 571.064 2089.81 575.864V595H2085.46V575.544C2085.46 570.296 2082.45 567.224 2077.78 567.224C2072.6 567.224 2069.46 571.064 2069.46 575.8V595ZM2131.91 595.768C2122.82 595.768 2116.74 589.24 2116.74 579.512C2116.74 569.848 2122.76 563.192 2131.59 563.192C2139.98 563.192 2145.67 569.144 2145.67 577.912V580.088H2121.03C2121.35 587.64 2125.32 591.992 2131.98 591.992C2137.03 591.992 2140.3 589.816 2141.45 585.72H2145.67C2144.01 592.248 2139.21 595.768 2131.91 595.768ZM2131.59 566.968C2125.77 566.968 2121.93 570.808 2121.16 576.888H2141.26C2141.26 570.936 2137.42 566.968 2131.59 566.968ZM2156.96 553.272C2156.96 557.304 2154.02 560.696 2150.05 561.272V558.904C2152.29 558.456 2153.96 556.856 2153.96 555.064C2153.57 555.32 2153 555.448 2152.23 555.448C2150.56 555.448 2149.09 554.232 2149.09 552.056C2149.09 549.88 2150.63 548.28 2152.87 548.28C2155.04 548.28 2156.96 550.136 2156.96 553.272ZM2167.33 553.272C2167.33 557.304 2164.32 560.696 2160.42 561.272V558.904C2162.66 558.456 2164.32 556.856 2164.32 555C2163.94 555.256 2163.43 555.448 2162.6 555.448C2160.93 555.448 2159.4 554.232 2159.4 552.056C2159.4 549.88 2160.93 548.28 2163.17 548.28C2165.41 548.28 2167.33 550.136 2167.33 553.272ZM2180.27 571.192C2178.1 571.192 2176.24 569.336 2176.24 567.224C2176.24 565.048 2178.1 563.256 2180.27 563.256C2182.45 563.256 2184.31 565.048 2184.31 567.224C2184.31 569.336 2182.45 571.192 2180.27 571.192ZM2180.27 595.704C2178.1 595.704 2176.24 593.912 2176.24 591.8C2176.24 589.624 2178.1 587.768 2180.27 587.768C2182.45 587.768 2184.31 589.624 2184.31 591.8C2184.31 593.912 2182.45 595.704 2180.27 595.704ZM2209.88 561.08C2209.88 553.4 2216.02 548.344 2225.24 548.344C2233.49 548.344 2238.93 552.952 2239.64 560.632H2234.97C2234.45 555.448 2230.93 552.504 2225.17 552.504C2218.71 552.504 2214.49 555.832 2214.49 561.016C2214.49 565.048 2216.85 567.608 2221.65 568.824L2229.53 570.744C2236.69 572.472 2240.41 576.568 2240.41 582.776C2240.41 590.712 2234.26 595.768 2224.79 595.768C2215.89 595.768 2209.88 591.096 2209.3 583.608H2214.04C2214.29 588.408 2218.52 591.544 2224.79 591.544C2231.51 591.544 2235.8 588.28 2235.8 583.032C2235.8 578.936 2233.49 576.248 2228.57 575.096L2220.82 573.176C2213.65 571.448 2209.88 567.352 2209.88 561.08ZM2254.84 595H2250.49V567.736H2244.28V564.024H2250.49V554.232H2254.84V564.024H2261.05V567.736H2254.84V595ZM2282.99 563.64V567.608H2280.56C2274.86 567.608 2271.21 571.448 2271.21 577.336V595H2266.8V564.024H2270.96L2271.28 568.824C2272.49 565.496 2275.76 563.32 2280.11 563.32C2281.07 563.32 2281.9 563.384 2282.99 563.64ZM2291.03 555.512C2289.24 555.512 2287.77 554.04 2287.77 552.248C2287.77 550.456 2289.24 548.92 2291.03 548.92C2292.83 548.92 2294.36 550.456 2294.36 552.248C2294.36 554.04 2292.83 555.512 2291.03 555.512ZM2288.86 595V564.024H2293.27V595H2288.86ZM2306.9 595H2302.48V564.024H2306.32L2306.96 569.4C2309.01 565.432 2313.11 563.192 2317.59 563.192C2326.1 563.192 2329.62 568.248 2329.62 576.056V595H2325.2V577.016C2325.2 569.784 2321.94 567.224 2316.82 567.224C2310.48 567.224 2306.9 571.832 2306.9 578.808V595ZM2336.31 578.616C2336.31 570.168 2341.75 563.192 2350.84 563.192C2356.21 563.192 2360.31 565.688 2362.29 570.232L2362.74 564.024H2366.58V594.04C2366.58 603.256 2360.69 609.272 2351.6 609.272C2343.67 609.272 2338.1 604.792 2336.88 597.304H2341.3C2342.26 602.296 2346.1 605.24 2351.67 605.24C2358 605.24 2362.23 600.952 2362.23 594.488V587.128C2360.12 591.48 2355.83 594.04 2350.52 594.04C2341.68 594.04 2336.31 587.064 2336.31 578.616ZM2340.72 578.552C2340.72 584.888 2344.63 590.072 2351.16 590.072C2357.88 590.072 2361.84 585.208 2361.84 578.552C2361.84 571.96 2358 567.096 2351.22 567.096C2344.56 567.096 2340.72 572.28 2340.72 578.552ZM2383.6 592.824C2383.6 596.792 2380.53 600.248 2376.56 600.824V598.456C2378.87 598.072 2380.53 596.408 2380.53 594.616C2380.15 594.872 2379.64 595.064 2378.87 595.064C2377.08 595.064 2375.54 593.784 2375.54 591.608C2375.54 589.368 2377.08 587.768 2379.32 587.768C2381.62 587.768 2383.6 589.624 2383.6 592.824ZM1976.78 643.56C1976.78 645.672 1975.3 647.272 1973.06 647.272C1970.82 647.272 1968.9 645.48 1968.9 642.28C1968.9 638.312 1971.91 634.92 1975.82 634.28V636.648C1973.58 637.096 1971.91 638.696 1971.91 640.552C1972.3 640.296 1972.81 640.104 1973.64 640.104C1975.3 640.104 1976.78 641.32 1976.78 643.56ZM1987.14 643.56C1987.14 645.672 1985.61 647.272 1983.37 647.272C1981.19 647.272 1979.21 645.48 1979.21 642.28C1979.21 638.312 1982.22 634.92 1986.18 634.28V636.648C1983.94 637.096 1982.28 638.696 1982.28 640.488C1982.66 640.232 1983.24 640.104 1984.01 640.104C1985.67 640.104 1987.14 641.32 1987.14 643.56ZM1997.85 641.512C1996.05 641.512 1994.58 640.04 1994.58 638.248C1994.58 636.456 1996.05 634.92 1997.85 634.92C1999.64 634.92 2001.17 636.456 2001.17 638.248C2001.17 640.04 1999.64 641.512 1997.85 641.512ZM1995.67 681V650.024H2000.09V681H1995.67ZM2021.46 681.768C2012.43 681.768 2007.12 674.856 2007.12 665.576C2007.12 656.232 2012.43 649.192 2021.65 649.192C2026.77 649.192 2030.86 651.432 2033.04 655.912V634.344H2037.46V681H2033.62L2033.17 674.664C2030.99 679.464 2026.64 681.768 2021.46 681.768ZM2022.22 677.736C2029.01 677.736 2032.98 672.616 2032.98 665.448C2032.98 658.344 2029.01 653.16 2022.22 653.16C2015.5 653.16 2011.6 658.344 2011.6 665.448C2011.6 672.616 2015.5 677.736 2022.22 677.736ZM2053.84 639.272C2053.84 643.304 2050.89 646.696 2046.93 647.272V644.904C2049.17 644.456 2050.83 642.856 2050.83 641.064C2050.45 641.32 2049.87 641.448 2049.1 641.448C2047.44 641.448 2045.97 640.232 2045.97 638.056C2045.97 635.88 2047.5 634.28 2049.74 634.28C2051.92 634.28 2053.84 636.136 2053.84 639.272ZM2064.21 639.272C2064.21 643.304 2061.2 646.696 2057.29 647.272V644.904C2059.53 644.456 2061.2 642.856 2061.2 641C2060.81 641.256 2060.3 641.448 2059.47 641.448C2057.81 641.448 2056.27 640.232 2056.27 638.056C2056.27 635.88 2057.81 634.28 2060.05 634.28C2062.29 634.28 2064.21 636.136 2064.21 639.272ZM2077.15 657.192C2074.97 657.192 2073.12 655.336 2073.12 653.224C2073.12 651.048 2074.97 649.256 2077.15 649.256C2079.33 649.256 2081.18 651.048 2081.18 653.224C2081.18 655.336 2079.33 657.192 2077.15 657.192ZM2077.15 681.704C2074.97 681.704 2073.12 679.912 2073.12 677.8C2073.12 675.624 2074.97 673.768 2077.15 673.768C2079.33 673.768 2081.18 675.624 2081.18 677.8C2081.18 679.912 2079.33 681.704 2077.15 681.704ZM2106.75 647.08C2106.75 639.4 2112.9 634.344 2122.11 634.344C2130.37 634.344 2135.81 638.952 2136.51 646.632H2131.84C2131.33 641.448 2127.81 638.504 2122.05 638.504C2115.59 638.504 2111.36 641.832 2111.36 647.016C2111.36 651.048 2113.73 653.608 2118.53 654.824L2126.4 656.744C2133.57 658.472 2137.28 662.568 2137.28 668.776C2137.28 676.712 2131.14 681.768 2121.67 681.768C2112.77 681.768 2106.75 677.096 2106.18 669.608H2110.91C2111.17 674.408 2115.39 677.544 2121.67 677.544C2128.39 677.544 2132.67 674.28 2132.67 669.032C2132.67 664.936 2130.37 662.248 2125.44 661.096L2117.7 659.176C2110.53 657.448 2106.75 653.352 2106.75 647.08ZM2151.71 681H2147.36V653.736H2141.15V650.024H2147.36V640.232H2151.71V650.024H2157.92V653.736H2151.71V681ZM2179.86 649.64V653.608H2177.43C2171.73 653.608 2168.09 657.448 2168.09 663.336V681H2163.67V650.024H2167.83L2168.15 654.824C2169.37 651.496 2172.63 649.32 2176.98 649.32C2177.94 649.32 2178.77 649.384 2179.86 649.64ZM2187.91 641.512C2186.12 641.512 2184.65 640.04 2184.65 638.248C2184.65 636.456 2186.12 634.92 2187.91 634.92C2189.7 634.92 2191.24 636.456 2191.24 638.248C2191.24 640.04 2189.7 641.512 2187.91 641.512ZM2185.73 681V650.024H2190.15V681H2185.73ZM2203.77 681H2199.36V650.024H2203.2L2203.84 655.4C2205.89 651.432 2209.98 649.192 2214.46 649.192C2222.97 649.192 2226.49 654.248 2226.49 662.056V681H2222.08V663.016C2222.08 655.784 2218.81 653.224 2213.69 653.224C2207.36 653.224 2203.77 657.832 2203.77 664.808V681ZM2233.18 664.616C2233.18 656.168 2238.62 649.192 2247.71 649.192C2253.09 649.192 2257.18 651.688 2259.17 656.232L2259.62 650.024H2263.46V680.04C2263.46 689.256 2257.57 695.272 2248.48 695.272C2240.54 695.272 2234.98 690.792 2233.76 683.304H2238.18C2239.14 688.296 2242.98 691.24 2248.54 691.24C2254.88 691.24 2259.1 686.952 2259.1 680.488V673.128C2256.99 677.48 2252.7 680.04 2247.39 680.04C2238.56 680.04 2233.18 673.064 2233.18 664.616ZM2237.6 664.552C2237.6 670.888 2241.5 676.072 2248.03 676.072C2254.75 676.072 2258.72 671.208 2258.72 664.552C2258.72 657.96 2254.88 653.096 2248.1 653.096C2241.44 653.096 2237.6 658.28 2237.6 664.552ZM1968.9 770.776H1965.32V767.192H1968.46C1970.18 767.192 1971.21 766.04 1971.21 764.376V750.04C1971.21 746.904 1972.3 744.92 1975.3 743.896C1972.3 743 1971.21 741.016 1971.21 737.88V723.544C1971.21 721.88 1970.18 720.728 1968.46 720.728H1965.32V717.144H1968.9C1972.81 717.144 1975.24 719.576 1975.24 723.16V737.624C1975.24 740.184 1976.52 742.04 1980.81 742.04V745.816C1976.52 745.816 1975.24 747.736 1975.24 750.296V764.76C1975.24 768.344 1972.81 770.776 1968.9 770.776Z" fill="black"/>
<path d="M1821.11 347H1816.57V301.176H1821.11L1837.82 341.56L1854.52 301.176H1859.13V347H1854.58V325.24C1854.58 317.24 1854.71 313.72 1854.97 310.584L1840.06 347H1835.64L1820.73 310.776C1820.98 312.504 1821.11 317.56 1821.11 324.536V347ZM1911.09 324.088C1911.09 337.976 1902.06 347.768 1889.26 347.768C1876.4 347.768 1867.44 337.976 1867.44 324.088C1867.44 310.2 1876.46 300.344 1889.26 300.344C1902.13 300.344 1911.09 310.136 1911.09 324.088ZM1906.35 324.088C1906.35 312.632 1899.38 304.824 1889.26 304.824C1879.15 304.824 1872.24 312.632 1872.24 324.088C1872.24 335.544 1879.15 343.352 1889.26 343.352C1899.38 343.352 1906.35 335.48 1906.35 324.088ZM1924.05 347H1919.44V301.176H1924.12L1949.33 339.32V301.176H1953.88V347H1949.33L1924.05 308.856V347ZM1984.27 304.76C1973.71 304.76 1967.05 312.568 1967.05 324.28C1967.05 336.184 1974.09 343.416 1984.4 343.416C1992.08 343.416 1999.56 339.704 1999.56 328.696V326.328H1982.99V322.232H2003.92V347.064H2000.27L1999.82 339.768C1997.39 344.312 1991.63 347.768 1984.2 347.768C1971.21 347.768 1962.25 338.424 1962.25 324.28C1962.25 310.264 1971.21 300.408 1984.33 300.408C1994 300.408 2001.48 305.912 2003.28 314.232H1998.28C1996.36 307.96 1990.99 304.76 1984.27 304.76ZM2053.9 324.088C2053.9 337.976 2044.88 347.768 2032.08 347.768C2019.21 347.768 2010.25 337.976 2010.25 324.088C2010.25 310.2 2019.28 300.344 2032.08 300.344C2044.94 300.344 2053.9 310.136 2053.9 324.088ZM2049.16 324.088C2049.16 312.632 2042.19 304.824 2032.08 304.824C2021.96 304.824 2015.05 312.632 2015.05 324.088C2015.05 335.544 2021.96 343.352 2032.08 343.352C2042.19 343.352 2049.16 335.48 2049.16 324.088ZM2093.96 347H2080.01V301.176H2093.83C2107.65 301.176 2116.87 310.392 2116.87 324.088C2116.87 337.784 2107.72 347 2093.96 347ZM2093.64 305.4H2084.61V342.776H2093.77C2104.97 342.776 2112.13 335.48 2112.13 324.088C2112.13 312.632 2104.97 305.4 2093.64 305.4ZM2125.19 347V301.176H2141.96C2150.79 301.176 2156.23 305.656 2156.23 313.016C2156.23 318.392 2153.87 322.04 2149.13 323.896C2154.44 325.624 2157.13 329.336 2157.13 334.968C2157.13 342.328 2151.62 347 2142.92 347H2125.19ZM2141.9 305.272H2129.8V322.04H2142.47C2148.23 322.04 2151.5 318.84 2151.5 313.4C2151.5 308.28 2148.04 305.272 2141.9 305.272ZM2142.92 326.072H2129.8V342.84H2142.92C2148.94 342.84 2152.46 339.704 2152.46 334.392C2152.46 329.208 2148.87 326.072 2142.92 326.072Z" fill="black"/>
<rect width="495" height="430" transform="translate(289 1485)" fill="#E67428"/>
<path d="M455.256 1725.7C442.456 1725.7 433.752 1716.17 433.752 1702.09C433.752 1688.01 442.584 1678.41 455.512 1678.41C465.368 1678.41 473.112 1684.36 474.968 1693.45H470.04C468.12 1686.86 462.488 1682.82 455.32 1682.82C445.272 1682.82 438.552 1690.5 438.552 1702.09C438.552 1713.61 445.272 1721.29 455.32 1721.29C462.552 1721.29 468.312 1717.38 470.296 1711.24H475.224C473.112 1719.88 465.112 1725.7 455.256 1725.7ZM487.801 1679.18V1720.78H508.857V1725H483.193V1679.18H487.801ZM520.364 1679.18V1725H515.756V1679.18H520.364ZM558.962 1725H531.506V1679.18H558.898V1683.4H536.114V1699.91H556.786V1704.07H536.114V1720.78H558.962V1725ZM572.926 1725H568.318V1679.18H572.99L598.206 1717.32V1679.18H602.75V1725H598.206L572.926 1686.86V1725ZM609.143 1683.4V1679.18H641.975V1683.4H627.831V1725H623.223V1683.4H609.143Z" fill="black"/>
<path d="M1987.06 1638.06C1987.65 1637.47 1987.65 1636.53 1987.06 1635.94L1977.51 1626.39C1976.93 1625.81 1975.98 1625.81 1975.39 1626.39C1974.81 1626.98 1974.81 1627.93 1975.39 1628.51L1983.88 1637L1975.39 1645.49C1974.81 1646.07 1974.81 1647.02 1975.39 1647.61C1975.98 1648.19 1976.93 1648.19 1977.51 1647.61L1987.06 1638.06ZM820 1638.5H1986V1635.5H820V1638.5Z" fill="black"/>
<path d="M1260.18 1563H1255.57V1517.18H1272.66C1281.94 1517.18 1287.57 1522.3 1287.57 1530.42C1287.57 1537.02 1284.11 1541.62 1278.22 1543.22L1288.02 1563H1282.9L1273.55 1543.99H1260.18V1563ZM1260.18 1521.34V1539.83H1272.78C1279.12 1539.83 1282.83 1536.38 1282.83 1530.55C1282.83 1524.6 1278.93 1521.34 1272.66 1521.34H1260.18ZM1306.29 1563.77C1297.2 1563.77 1291.12 1557.24 1291.12 1547.51C1291.12 1537.85 1297.14 1531.19 1305.97 1531.19C1314.35 1531.19 1320.05 1537.14 1320.05 1545.91V1548.09H1295.41C1295.73 1555.64 1299.7 1559.99 1306.35 1559.99C1311.41 1559.99 1314.67 1557.82 1315.82 1553.72H1320.05C1318.38 1560.25 1313.58 1563.77 1306.29 1563.77ZM1305.97 1534.97C1300.14 1534.97 1296.3 1538.81 1295.54 1544.89H1315.63C1315.63 1538.94 1311.79 1534.97 1305.97 1534.97ZM1324.93 1547.38C1324.93 1538.04 1330.31 1531.19 1339.27 1531.19C1344.45 1531.19 1348.74 1533.5 1350.98 1538.3L1351.43 1532.02H1355.27V1576.5H1350.85V1557.05C1348.68 1561.53 1344.52 1563.77 1339.27 1563.77C1330.12 1563.77 1324.93 1556.73 1324.93 1547.38ZM1329.41 1547.51C1329.41 1554.62 1333.32 1559.8 1340.04 1559.8C1346.82 1559.8 1350.79 1554.62 1350.79 1547.51C1350.79 1540.34 1346.82 1535.22 1340.04 1535.22C1333.32 1535.22 1329.41 1540.34 1329.41 1547.51ZM1386.24 1532.02H1390.66V1563H1386.82L1386.24 1557.75C1384.52 1561.34 1380.23 1563.77 1375.36 1563.77C1368.07 1563.77 1364.1 1558.78 1364.1 1551.22V1531.96H1368.58V1549.82C1368.58 1557.18 1371.84 1559.8 1376.77 1559.8C1382.72 1559.8 1386.24 1555.83 1386.24 1548.47V1532.02ZM1412.23 1563.77C1403.14 1563.77 1397.06 1557.24 1397.06 1547.51C1397.06 1537.85 1403.07 1531.19 1411.91 1531.19C1420.29 1531.19 1425.99 1537.14 1425.99 1545.91V1548.09H1401.35C1401.67 1555.64 1405.63 1559.99 1412.29 1559.99C1417.35 1559.99 1420.61 1557.82 1421.76 1553.72H1425.99C1424.32 1560.25 1419.52 1563.77 1412.23 1563.77ZM1411.91 1534.97C1406.08 1534.97 1402.24 1538.81 1401.47 1544.89H1421.57C1421.57 1538.94 1417.73 1534.97 1411.91 1534.97ZM1430.42 1554.3H1434.65C1434.65 1557.88 1437.33 1560.12 1441.69 1560.12C1446.49 1560.12 1449.3 1558.07 1449.3 1554.74C1449.3 1552.18 1448.02 1550.71 1444.37 1549.82L1439.06 1548.47C1433.69 1547.13 1431.06 1544.31 1431.06 1540.09C1431.06 1534.65 1435.61 1531.19 1442.26 1531.19C1448.79 1531.19 1453.01 1534.78 1453.21 1540.54H1448.92C1448.79 1536.95 1446.29 1534.84 1442.13 1534.84C1437.78 1534.84 1435.35 1536.7 1435.35 1540.02C1435.35 1542.39 1437.01 1544.06 1440.41 1544.89L1445.72 1546.23C1451.09 1547.58 1453.53 1550.07 1453.53 1554.55C1453.53 1560.12 1448.79 1563.77 1441.75 1563.77C1434.77 1563.77 1430.42 1560.06 1430.42 1554.3ZM1467.9 1563H1463.55V1535.74H1457.34V1532.02H1463.55V1522.23H1467.9V1532.02H1474.11V1535.74H1467.9V1563Z" fill="black"/>
<path d="M1260.18 1895H1255.57V1849.18H1272.66C1281.94 1849.18 1287.57 1854.3 1287.57 1862.42C1287.57 1869.02 1284.11 1873.62 1278.22 1875.22L1288.02 1895H1282.9L1273.55 1875.99H1260.18V1895ZM1260.18 1853.34V1871.83H1272.78C1279.12 1871.83 1282.83 1868.38 1282.83 1862.55C1282.83 1856.6 1278.93 1853.34 1272.66 1853.34H1260.18ZM1306.29 1895.77C1297.2 1895.77 1291.12 1889.24 1291.12 1879.51C1291.12 1869.85 1297.14 1863.19 1305.97 1863.19C1314.35 1863.19 1320.05 1869.14 1320.05 1877.91V1880.09H1295.41C1295.73 1887.64 1299.7 1891.99 1306.35 1891.99C1311.41 1891.99 1314.67 1889.82 1315.82 1885.72H1320.05C1318.38 1892.25 1313.58 1895.77 1306.29 1895.77ZM1305.97 1866.97C1300.14 1866.97 1296.3 1870.81 1295.54 1876.89H1315.63C1315.63 1870.94 1311.79 1866.97 1305.97 1866.97ZM1324.48 1886.3H1328.71C1328.71 1889.88 1331.4 1892.12 1335.75 1892.12C1340.55 1892.12 1343.36 1890.07 1343.36 1886.74C1343.36 1884.18 1342.08 1882.71 1338.44 1881.82L1333.12 1880.47C1327.75 1879.13 1325.12 1876.31 1325.12 1872.09C1325.12 1866.65 1329.67 1863.19 1336.32 1863.19C1342.85 1863.19 1347.08 1866.78 1347.27 1872.54H1342.98C1342.85 1868.95 1340.36 1866.84 1336.2 1866.84C1331.84 1866.84 1329.41 1868.7 1329.41 1872.02C1329.41 1874.39 1331.08 1876.06 1334.47 1876.89L1339.78 1878.23C1345.16 1879.58 1347.59 1882.07 1347.59 1886.55C1347.59 1892.12 1342.85 1895.77 1335.81 1895.77C1328.84 1895.77 1324.48 1892.06 1324.48 1886.3ZM1354.86 1908.5V1864.02H1358.7L1359.15 1870.3C1361.32 1865.5 1365.67 1863.19 1370.86 1863.19C1379.82 1863.19 1385.19 1870.04 1385.19 1879.38C1385.19 1888.73 1380.01 1895.77 1370.86 1895.77C1365.61 1895.77 1361.45 1893.53 1359.27 1889.05V1908.5H1354.86ZM1359.34 1879.51C1359.34 1886.62 1363.31 1891.8 1370.09 1891.8C1376.81 1891.8 1380.71 1886.62 1380.71 1879.51C1380.71 1872.34 1376.81 1867.22 1370.09 1867.22C1363.31 1867.22 1359.34 1872.34 1359.34 1879.51ZM1390.06 1879.51C1390.06 1870.04 1396.71 1863.19 1405.8 1863.19C1414.89 1863.19 1421.55 1870.04 1421.55 1879.51C1421.55 1888.92 1414.89 1895.77 1405.8 1895.77C1396.71 1895.77 1390.06 1888.92 1390.06 1879.51ZM1394.54 1879.45C1394.54 1886.74 1399.15 1891.8 1405.8 1891.8C1412.39 1891.8 1417.07 1886.74 1417.07 1879.45C1417.07 1872.28 1412.39 1867.16 1405.8 1867.16C1399.15 1867.16 1394.54 1872.28 1394.54 1879.45ZM1433.02 1895H1428.61V1864.02H1432.45L1433.09 1869.4C1435.14 1865.43 1439.23 1863.19 1443.71 1863.19C1452.22 1863.19 1455.74 1868.25 1455.74 1876.06V1895H1451.33V1877.02C1451.33 1869.78 1448.06 1867.22 1442.94 1867.22C1436.61 1867.22 1433.02 1871.83 1433.02 1878.81V1895ZM1461.55 1886.3H1465.77C1465.77 1889.88 1468.46 1892.12 1472.81 1892.12C1477.61 1892.12 1480.43 1890.07 1480.43 1886.74C1480.43 1884.18 1479.15 1882.71 1475.5 1881.82L1470.19 1880.47C1464.81 1879.13 1462.19 1876.31 1462.19 1872.09C1462.19 1866.65 1466.73 1863.19 1473.39 1863.19C1479.91 1863.19 1484.14 1866.78 1484.33 1872.54H1480.04C1479.91 1868.95 1477.42 1866.84 1473.26 1866.84C1468.91 1866.84 1466.47 1868.7 1466.47 1872.02C1466.47 1874.39 1468.14 1876.06 1471.53 1876.89L1476.84 1878.23C1482.22 1879.58 1484.65 1882.07 1484.65 1886.55C1484.65 1892.12 1479.91 1895.77 1472.87 1895.77C1465.9 1895.77 1461.55 1892.06 1461.55 1886.3ZM1504.91 1895.77C1495.82 1895.77 1489.74 1889.24 1489.74 1879.51C1489.74 1869.85 1495.76 1863.19 1504.59 1863.19C1512.98 1863.19 1518.67 1869.14 1518.67 1877.91V1880.09H1494.03C1494.35 1887.64 1498.32 1891.99 1504.98 1891.99C1510.03 1891.99 1513.3 1889.82 1514.45 1885.72H1518.67C1517.01 1892.25 1512.21 1895.77 1504.91 1895.77ZM1504.59 1866.97C1498.77 1866.97 1494.93 1870.81 1494.16 1876.89H1514.26C1514.26 1870.94 1510.42 1866.97 1504.59 1866.97Z" fill="black"/>
<path d="M818.931 1789.05C818.35 1788.46 818.358 1787.51 818.948 1786.93L828.573 1777.46C829.164 1776.88 830.114 1776.89 830.694 1777.48C831.275 1778.07 831.267 1779.02 830.677 1779.6L822.121 1788.02L830.536 1796.57C831.117 1797.16 831.109 1798.11 830.518 1798.69C829.927 1799.28 828.978 1799.27 828.397 1798.68L818.931 1789.05ZM2021.99 1799.5L819.988 1789.5L820.012 1786.5L2022.01 1796.5L2021.99 1799.5Z" fill="black"/>
<path d="M2310.06 844.943C2309.48 844.355 2308.53 844.352 2307.94 844.936L2298.37 854.451C2297.78 855.035 2297.78 855.985 2298.36 856.572C2298.94 857.16 2299.89 857.163 2300.48 856.579L2308.99 848.121L2317.45 856.634C2318.03 857.222 2318.98 857.225 2319.57 856.641C2320.16 856.057 2320.16 855.107 2319.58 854.519L2310.06 844.943ZM2308.5 1465L2310.5 846.005L2307.5 845.995L2305.5 1465L2308.5 1465Z" fill="black"/>
</svg>
